<svg width="156" height="32" viewBox="0 0 156 32" fill="none" xmlns="http://www.w3.org/2000/svg">
<g clip-path="url(#clip0_10_378)">
<g clip-path="url(#clip1_10_378)">
<g clip-path="url(#clip2_10_378)">
<g clip-path="url(#clip3_10_378)">
<path d="M13.0541 31.9146C7.90804 31.9146 3.79122 30.6047 0.703613 27.9849L2.20064 25.2033C3.82241 26.4985 5.48473 27.4257 7.18759 27.9849C8.88422 28.5442 10.8553 28.8239 13.1008 28.8239C15.7518 28.8239 17.7946 28.3382 19.2293 27.3668C20.6639 26.3954 21.3812 25.0267 21.3812 23.2606C21.3812 22.2304 21.0382 21.3915 20.352 20.7439C19.6659 20.0963 18.7614 19.5812 17.6387 19.1985C16.5159 18.8159 15.0033 18.4185 13.1008 18.0064C10.5434 17.4471 8.44759 16.8584 6.81334 16.2403C5.17285 15.6221 3.84736 14.7391 2.83687 13.5911C1.82014 12.4431 1.31178 10.9419 1.31178 9.08752C1.31178 7.32141 1.80455 5.75251 2.79009 4.38083C3.76939 3.01503 5.17285 1.95536 7.00046 1.20182C8.82184 0.454165 10.9333 0.0803375 13.3347 0.0803375C15.6115 0.0803375 17.7416 0.418844 19.7252 1.09585C21.7025 1.77287 23.3773 2.74423 24.7495 4.00994L23.2993 6.79157C21.7399 5.52586 20.1587 4.60453 18.5556 4.0276C16.9463 3.45656 15.206 3.17104 13.3347 3.17104C10.7773 3.17104 8.77506 3.67732 7.32794 4.6899C5.87458 5.70836 5.1479 7.13008 5.1479 8.95506C5.1479 10.5151 5.78725 11.6925 7.06596 12.4873C8.34467 13.282 10.2783 13.9591 12.8669 14.5183C15.705 15.1659 17.935 15.7605 19.5567 16.3021C21.1785 16.8496 22.529 17.6679 23.6081 18.757C24.6809 19.8461 25.2174 21.3031 25.2174 23.1281C25.2174 24.8942 24.7277 26.4396 23.7484 27.7642C22.7629 29.0888 21.3501 30.1102 19.51 30.8284C17.6699 31.5525 15.5179 31.9146 13.0541 31.9146ZM42.5735 31.5613H38.6906V3.52426H27.229V0.433562H54.0818V3.52426H42.5735V31.5613ZM70.4555 31.9146C67.3991 31.9146 64.7388 31.267 62.4745 29.9718C60.2165 28.6767 58.4793 26.837 57.263 24.4527C56.0404 22.0685 55.4292 19.2574 55.4292 16.0195C55.4292 12.7522 56.0311 9.9176 57.2349 7.51568C58.4388 5.11965 60.1697 3.27995 62.4277 1.99657C64.692 0.719084 67.3679 0.0803375 70.4555 0.0803375C73.5369 0.0803375 76.2097 0.719084 78.4739 1.99657C80.732 3.27995 82.4629 5.11965 83.6667 7.51568C84.8644 9.9176 85.4632 12.7375 85.4632 15.9754C85.4632 19.2132 84.8581 22.0302 83.648 24.4262C82.4317 26.8281 80.6914 28.6767 78.4272 29.9718C76.1692 31.267 73.5119 31.9146 70.4555 31.9146ZM70.4555 28.8239C73.9486 28.8239 76.6682 27.7112 78.6143 25.4859C80.5667 23.2665 81.5428 20.0963 81.5428 15.9754C81.5428 11.8544 80.576 8.69015 78.6424 6.4825C76.7087 4.27486 73.9798 3.17104 70.4555 3.17104C66.9625 3.17104 64.2398 4.28075 62.2874 6.50017C60.3413 8.72547 59.3682 11.8839 59.3682 15.9754C59.3682 20.0669 60.3413 23.2312 62.2874 25.4682C64.2398 27.7053 66.9625 28.8239 70.4555 28.8239ZM112.597 21.4062L118.351 31.5613H114.141L108.527 21.5828C107.841 20.3759 107.039 19.5429 106.122 19.0837C105.199 18.6304 103.942 18.4038 102.351 18.4038H96.1762V31.5613H92.3869V0.433562H105.954C109.54 0.433562 112.279 1.18416 114.169 2.68536C116.052 4.18655 116.994 6.3942 116.994 9.30829C116.994 11.722 116.271 13.6735 114.824 15.163C113.37 16.6465 111.302 17.5796 108.62 17.9622C109.462 18.1977 110.205 18.5951 110.847 19.1544C111.483 19.7136 112.067 20.4642 112.597 21.4062ZM96.1762 15.4014H105.626C108.184 15.4014 110.095 14.901 111.362 13.9002C112.622 12.8994 113.252 11.3835 113.252 9.35244C113.252 7.35084 112.628 5.86436 111.38 4.893C110.133 3.92164 108.215 3.43596 105.626 3.43596H96.1762V15.4014ZM140.151 22.9957L152.502 0.433562H155.636V31.5613H152.127L152.174 7.45387L141.461 26.6162H138.748L127.988 7.63048L128.035 31.5613H124.479V0.433562H127.66L140.151 22.9957Z" fill="#1A1A1A"/>
</g>
</g>
</g>
</g>
<defs>
<clipPath id="clip0_10_378">
<rect width="154.942" height="31.8342" fill="white" transform="translate(0.698761 0.0803375)"/>
</clipPath>
<clipPath id="clip1_10_378">
<rect width="154.942" height="31.8342" fill="white" transform="translate(0.698761 0.0803375)"/>
</clipPath>
<clipPath id="clip2_10_378">
<rect width="154.942" height="31.8342" fill="white" transform="translate(0.698761 0.0803375)"/>
</clipPath>
<clipPath id="clip3_10_378">
<rect width="154.942" height="31.8342" fill="white" transform="translate(0.698761 0.0803375)"/>
</clipPath>
</defs>
</svg>
